<svg width="189" height="40" fill="none" xmlns="http://www.w3.org/2000/svg"><rect width="189" height="40" rx="8" fill="#25D366"/><path fill-rule="evenodd" clip-rule="evenodd" d="M27.746 8.947a11.374 11.374 0 0 1 7.799 3.163 11.286 11.286 0 0 1 3.49 7.785c.106 2.9-.907 5.75-2.828 7.926a11.298 11.298 0 0 1-8.202 3.849 11.361 11.361 0 0 1-.325.004c-1.705 0-3.395-.384-4.925-1.12l-5.948 1.322a.087.087 0 0 1-.103-.097l1.004-6.014a11.386 11.386 0 0 1-1.387-5.128 11.29 11.29 0 0 1 3.096-8.128 11.296 11.296 0 0 1 8.273-3.562h.056Zm-.063 1.972a9.576 9.576 0 0 0-.273.004c-5.176.148-9.267 4.48-9.119 9.657a9.402 9.402 0 0 0 1.288 4.487l.173.294-.744 4.08 4.039-.952.305.158a9.396 9.396 0 0 0 4.596 1.052c5.177-.149 9.268-4.48 9.12-9.657-.147-5.086-4.33-9.123-9.385-9.123Zm-3.929 3.902c.19.006.38.012.547.024.203.015.427.031.626.513.236.572.747 2 .814 2.145.067.145.11.313.008.5-.1.188-.152.306-.3.468-.147.162-.31.363-.442.486-.148.138-.3.288-.143.579.157.29.7 1.242 1.525 2.025 1.06 1.005 1.91 1.337 2.247 1.495a.75.75 0 0 0 .312.084c.12 0 .218-.051.31-.145.178-.18.713-.804.938-1.09.117-.15.224-.204.34-.204.092 0 .19.034.306.08.258.103 1.639.837 1.92.988.28.151.468.229.536.35.067.121.05.692-.208 1.351-.258.66-1.442 1.267-1.966 1.298-.154.01-.305.03-.501.03-.476 0-1.216-.124-2.899-.85-2.863-1.232-4.602-4.262-4.739-4.456-.136-.195-1.116-1.583-1.073-2.988.043-1.404.8-2.071 1.071-2.349.26-.266.556-.334.747-.334h.024Z" fill="#fff"/><path d="M55.636 18.364h2.128a4.03 4.03 0 0 0-.476-1.54 3.62 3.62 0 0 0-.966-1.12 4.05 4.05 0 0 0-1.316-.7 4.97 4.97 0 0 0-1.554-.238c-.766 0-1.456.135-2.072.406-.607.27-1.12.644-1.54 1.12a4.981 4.981 0 0 0-.966 1.68 6.185 6.185 0 0 0-.336 2.072c0 .728.112 1.41.336 2.044a4.88 4.88 0 0 0 .966 1.638c.42.467.933.835 1.54 1.106.616.261 1.306.392 2.072.392.616 0 1.18-.093 1.694-.28a3.928 3.928 0 0 0 1.344-.812 4.06 4.06 0 0 0 .924-1.288 5.083 5.083 0 0 0 .434-1.694H55.72c-.084.672-.318 1.213-.7 1.624-.374.41-.896.616-1.568.616-.495 0-.915-.093-1.26-.28a2.467 2.467 0 0 1-.84-.77 3.434 3.434 0 0 1-.476-1.064 5.417 5.417 0 0 1-.14-1.232c0-.439.046-.863.14-1.274a3.4 3.4 0 0 1 .476-1.092c.214-.327.494-.583.84-.77.345-.196.765-.294 1.26-.294.27 0 .527.047.77.14a2.125 2.125 0 0 1 1.162.924c.13.205.214.434.252.686Zm3.503-3.36V25h1.988v-3.794c0-.737.121-1.265.364-1.582.242-.327.634-.49 1.176-.49.476 0 .807.15.994.448.186.29.28.733.28 1.33V25h1.988v-4.452c0-.448-.042-.854-.126-1.218a2.209 2.209 0 0 0-.406-.938 1.86 1.86 0 0 0-.812-.602c-.336-.15-.77-.224-1.302-.224-.374 0-.756.098-1.148.294-.392.187-.714.49-.966.91h-.042v-3.766h-1.988Zm8.215 4.984c.028-.467.144-.854.35-1.162a2.385 2.385 0 0 1 .784-.742 3.298 3.298 0 0 1 1.064-.392 5.863 5.863 0 0 1 1.204-.126c.364 0 .732.028 1.106.084a3.25 3.25 0 0 1 1.022.294c.308.15.56.36.756.63.196.261.294.611.294 1.05v3.766c0 .327.018.64.056.938.037.299.102.523.196.672H72.17a4.575 4.575 0 0 1-.098-.336 4.899 4.899 0 0 1-.042-.364 2.59 2.59 0 0 1-1.12.686 4.494 4.494 0 0 1-1.316.196c-.346 0-.668-.042-.966-.126a2.213 2.213 0 0 1-.784-.392 1.892 1.892 0 0 1-.532-.672 2.348 2.348 0 0 1-.182-.966c0-.41.07-.747.21-1.008.149-.27.336-.485.56-.644.233-.159.494-.275.784-.35a7.707 7.707 0 0 1 .896-.196c.298-.047.592-.084.882-.112.289-.028.546-.07.77-.126.224-.056.401-.135.532-.238.13-.112.191-.27.182-.476 0-.215-.038-.383-.112-.504a.657.657 0 0 0-.28-.294.913.913 0 0 0-.406-.14 2.663 2.663 0 0 0-.49-.042c-.392 0-.7.084-.924.252-.224.168-.355.448-.392.84h-1.988Zm4.592 1.47a.97.97 0 0 1-.322.182 3.715 3.715 0 0 1-.406.098c-.14.028-.29.051-.448.07a8.4 8.4 0 0 0-.476.07 3.927 3.927 0 0 0-.448.112c-.14.047-.266.112-.378.196a.864.864 0 0 0-.252.294.969.969 0 0 0-.098.462c0 .177.032.327.098.448a.808.808 0 0 0 .266.294c.112.065.242.112.392.14.149.028.303.042.462.042.392 0 .695-.065.91-.196.214-.13.373-.285.476-.462.102-.187.163-.373.182-.56a3.18 3.18 0 0 0 .042-.448v-.742Zm6.05-3.696v-2.17H76.01v2.17h-1.204v1.33h1.204v4.27c0 .364.06.658.182.882.121.224.284.397.49.518.214.121.457.2.728.238.28.047.574.07.882.07.196 0 .396-.005.602-.014.205-.01.392-.028.56-.056v-1.54a2.765 2.765 0 0 1-.294.042c-.103.01-.21.014-.322.014-.336 0-.56-.056-.672-.168-.112-.112-.168-.336-.168-.672v-3.584h1.456v-1.33h-1.456Zm8.063 3.626c0-.29.028-.574.084-.854.056-.28.15-.527.28-.742.14-.215.322-.387.546-.518.224-.14.504-.21.84-.21.336 0 .616.07.84.21.233.13.415.303.546.518.14.215.238.462.294.742a4.344 4.344 0 0 1 0 1.708c-.056.27-.154.518-.294.742a1.46 1.46 0 0 1-.546.518c-.224.13-.504.196-.84.196-.336 0-.616-.065-.84-.196a1.612 1.612 0 0 1-.546-.518 2.443 2.443 0 0 1-.28-.742 4.344 4.344 0 0 1-.084-.854Zm-1.988 0c0 .579.089 1.101.266 1.568.177.467.43.868.756 1.204.327.327.719.579 1.176.756.457.177.97.266 1.54.266.57 0 1.083-.089 1.54-.266a3.33 3.33 0 0 0 1.19-.756c.327-.336.579-.737.756-1.204.177-.467.266-.99.266-1.568 0-.579-.089-1.101-.266-1.568a3.311 3.311 0 0 0-.756-1.204 3.239 3.239 0 0 0-1.19-.77 4.042 4.042 0 0 0-1.54-.28c-.57 0-1.083.093-1.54.28a3.308 3.308 0 0 0-1.932 1.974c-.177.467-.266.99-.266 1.568Zm8.783-3.626V25h1.988v-3.794c0-.737.121-1.265.364-1.582.242-.327.634-.49 1.176-.49.476 0 .807.15.994.448.186.29.28.733.28 1.33V25h1.988v-4.452c0-.448-.042-.854-.126-1.218a2.209 2.209 0 0 0-.406-.938 1.86 1.86 0 0 0-.812-.602c-.336-.15-.77-.224-1.302-.224-.42 0-.831.098-1.232.294-.402.187-.728.49-.98.91h-.042v-1.008h-1.89ZM114.779 25l2.688-9.996h-2.156l-1.638 6.888h-.028l-1.708-6.888h-2.058l-1.736 6.804h-.028l-1.582-6.804h-2.198L106.981 25h2.226l1.666-6.804h.028L112.595 25h2.184Zm3.491-9.996V25h1.988v-3.794c0-.737.121-1.265.364-1.582.242-.327.634-.49 1.176-.49.476 0 .807.15.994.448.186.29.28.733.28 1.33V25h1.988v-4.452c0-.448-.042-.854-.126-1.218a2.212 2.212 0 0 0-.406-.938 1.862 1.862 0 0 0-.812-.602c-.336-.15-.77-.224-1.302-.224-.374 0-.756.098-1.148.294-.392.187-.714.49-.966.91h-.042v-3.766h-1.988Zm8.215 4.984c.028-.467.144-.854.35-1.162a2.374 2.374 0 0 1 .784-.742 3.294 3.294 0 0 1 1.064-.392 5.855 5.855 0 0 1 1.204-.126c.364 0 .732.028 1.106.084.373.047.714.145 1.022.294.308.15.56.36.756.63.196.261.294.611.294 1.05v3.766c0 .327.018.64.056.938.037.299.102.523.196.672h-2.016a4.255 4.255 0 0 1-.098-.336 4.507 4.507 0 0 1-.042-.364 2.596 2.596 0 0 1-1.12.686c-.43.13-.868.196-1.316.196-.346 0-.668-.042-.966-.126a2.21 2.21 0 0 1-.784-.392 1.884 1.884 0 0 1-.532-.672c-.122-.27-.182-.593-.182-.966 0-.41.07-.747.21-1.008.149-.27.336-.485.56-.644.233-.159.494-.275.784-.35.298-.084.597-.15.896-.196.298-.047.592-.084.882-.112.289-.028.546-.07.77-.126a1.41 1.41 0 0 0 .532-.238c.13-.112.191-.27.182-.476 0-.215-.038-.383-.112-.504a.663.663 0 0 0-.28-.294.916.916 0 0 0-.406-.14 2.671 2.671 0 0 0-.49-.042c-.392 0-.7.084-.924.252-.224.168-.355.448-.392.84h-1.988Zm4.592 1.47a.976.976 0 0 1-.322.182 5.725 5.725 0 0 1-.854.168 8.257 8.257 0 0 0-.476.07 3.87 3.87 0 0 0-.448.112c-.14.047-.266.112-.378.196a.855.855 0 0 0-.252.294.96.96 0 0 0-.098.462c0 .177.032.327.098.448a.805.805 0 0 0 .266.294c.112.065.242.112.392.14.149.028.303.042.462.042.392 0 .695-.065.91-.196.214-.13.373-.285.476-.462.102-.187.163-.373.182-.56a3.18 3.18 0 0 0 .042-.448v-.742Zm6.051-3.696v-2.17h-1.988v2.17h-1.204v1.33h1.204v4.27c0 .364.06.658.182.882.121.224.284.397.49.518.214.121.457.2.728.238.28.047.574.07.882.07.196 0 .396-.005.602-.014a4.73 4.73 0 0 0 .56-.056v-1.54a2.818 2.818 0 0 1-.294.042c-.103.01-.21.014-.322.014-.336 0-.56-.056-.672-.168-.112-.112-.168-.336-.168-.672v-3.584h1.456v-1.33h-1.456Zm3.941 4.886h-1.89c.019.485.126.891.322 1.218.206.317.462.574.77.77a3.34 3.34 0 0 0 1.078.42 6.002 6.002 0 0 0 2.436 0 2.97 2.97 0 0 0 1.064-.406 2.248 2.248 0 0 0 .742-.77c.196-.327.294-.728.294-1.204 0-.336-.065-.616-.196-.84a1.692 1.692 0 0 0-.518-.574 2.635 2.635 0 0 0-.742-.378 7.85 7.85 0 0 0-.84-.238 33.371 33.371 0 0 0-.826-.182 8.376 8.376 0 0 1-.728-.182 1.624 1.624 0 0 1-.504-.28.547.547 0 0 1-.196-.434c0-.15.038-.266.112-.35a.728.728 0 0 1 .266-.21 1.156 1.156 0 0 1 .364-.084c.131-.019.252-.028.364-.028.355 0 .663.07.924.21.262.13.406.387.434.77h1.89c-.037-.448-.154-.817-.35-1.106a2.162 2.162 0 0 0-.714-.714 3.01 3.01 0 0 0-.994-.378 5.842 5.842 0 0 0-2.282 0 2.957 2.957 0 0 0-1.008.364 2.019 2.019 0 0 0-.728.7c-.177.299-.266.681-.266 1.148 0 .317.066.588.196.812.131.215.304.397.518.546.215.14.458.257.728.35.28.084.565.159.854.224.71.15 1.26.299 1.652.448.402.15.602.373.602.672a.768.768 0 0 1-.126.448 1.04 1.04 0 0 1-.322.28 1.698 1.698 0 0 1-.42.154 2.351 2.351 0 0 1-.434.042 2.358 2.358 0 0 1-.574-.07 1.577 1.577 0 0 1-.476-.21 1.365 1.365 0 0 1-.35-.378 1.18 1.18 0 0 1-.126-.56Zm8.71-1.512 1.302-3.668h.028l1.26 3.668h-2.59Zm.21-6.132L146.209 25h2.212l.784-2.226h3.738l.756 2.226h2.282l-3.738-9.996h-2.254Zm10.298 8.694c-.317 0-.588-.065-.812-.196a1.667 1.667 0 0 1-.546-.504 2.5 2.5 0 0 1-.294-.742 4.344 4.344 0 0 1-.084-.854c0-.299.028-.588.084-.868.056-.28.149-.527.28-.742.14-.215.317-.387.532-.518.224-.14.499-.21.826-.21.317 0 .583.07.798.21.224.13.406.308.546.532.14.215.238.462.294.742.065.28.098.565.098.854s-.028.574-.084.854c-.056.28-.154.527-.294.742a1.537 1.537 0 0 1-.532.504c-.215.13-.485.196-.812.196Zm-3.654-5.936v9.772h1.988v-3.43h.028c.243.355.551.625.924.812.383.177.798.266 1.246.266.532 0 .994-.103 1.386-.308a2.86 2.86 0 0 0 .994-.826c.271-.345.471-.742.602-1.19.131-.448.196-.915.196-1.4 0-.513-.065-1.003-.196-1.47a3.6 3.6 0 0 0-.602-1.246 3.035 3.035 0 0 0-1.022-.854c-.411-.215-.901-.322-1.47-.322-.448 0-.859.089-1.232.266s-.681.462-.924.854h-.028v-.924h-1.89Zm12.213 5.936c-.318 0-.588-.065-.812-.196a1.667 1.667 0 0 1-.546-.504 2.5 2.5 0 0 1-.294-.742 4.344 4.344 0 0 1-.084-.854c0-.299.028-.588.084-.868.056-.28.149-.527.28-.742.14-.215.317-.387.532-.518.224-.14.499-.21.826-.21.317 0 .583.07.798.21.224.13.406.308.546.532.14.215.238.462.294.742.065.28.098.565.098.854s-.028.574-.084.854c-.056.28-.154.527-.294.742a1.537 1.537 0 0 1-.532.504c-.215.13-.486.196-.812.196Zm-3.654-5.936v9.772h1.988v-3.43h.028c.242.355.55.625.924.812.382.177.798.266 1.246.266.532 0 .994-.103 1.386-.308a2.87 2.87 0 0 0 .994-.826 3.51 3.51 0 0 0 .602-1.19c.13-.448.196-.915.196-1.4 0-.513-.066-1.003-.196-1.47a3.618 3.618 0 0 0-.602-1.246 3.045 3.045 0 0 0-1.022-.854c-.411-.215-.901-.322-1.47-.322-.448 0-.859.089-1.232.266a2.179 2.179 0 0 0-.924.854h-.028v-.924h-1.89Z" fill="#fff"/></svg>